<!-- Plant Care Companion — illustrazione originale di Edoardo Giangrandi, © 2026, licenza MIT -->
<svg xmlns="http://www.w3.org/2000/svg" viewBox="0 0 64 64" width="100%" height="100%" aria-hidden="true"><rect x="30" y="10" width="4" height="50" rx="2" fill="#8A6A4A"></rect><path d="M30 16c-9 1-16 8-15 16 6 3 15-1 18-8 1-4 0-7-3-8z" fill="#4C7A63"></path><ellipse cx="21" cy="25" rx="3.4" ry="2" fill="#F8F5EE" transform="rotate(-20 21 25)"></ellipse><ellipse cx="26" cy="20" rx="2.4" ry="1.5" fill="#F8F5EE" transform="rotate(-20 26 20)"></ellipse><path d="M34 32c9 1 16 8 15 16-6 3-15-1-18-8-1-4 0-7 3-8z" fill="#89AF97"></path><ellipse cx="43" cy="41" rx="3.4" ry="2" fill="#F8F5EE" transform="rotate(20 43 41)"></ellipse><ellipse cx="38" cy="36" rx="2.4" ry="1.5" fill="#F8F5EE" transform="rotate(20 38 36)"></ellipse><path d="M30 46c-8 1-14 7-13 14 5 2 13-1 16-7 1-3 0-6-3-7z" fill="#4C7A63"></path><ellipse cx="22" cy="54" rx="3" ry="1.8" fill="#F8F5EE" transform="rotate(-20 22 54)"></ellipse></svg>
