<!-- Plant Care Companion — illustrazione originale di Edoardo Giangrandi, © 2026, licenza MIT -->
<svg xmlns="http://www.w3.org/2000/svg" viewBox="0 0 64 64" width="100%" height="100%" aria-hidden="true"><g transform="rotate(-25 32 58)"><path d="M32 58C32 40 32 20 32 8" stroke="#2A5340" stroke-width="1.2"></path><g><ellipse cx="25" cy="14" rx="5" ry="2" fill="#487B5F" transform="rotate(-25 26 14)"></ellipse><ellipse cx="39" cy="14" rx="5" ry="2" fill="#8AB39A" transform="rotate(25 38 14)"></ellipse></g><g><ellipse cx="25.8" cy="22" rx="4.5" ry="2" fill="#487B5F" transform="rotate(-25 26 22)"></ellipse><ellipse cx="38.2" cy="22" rx="4.5" ry="2" fill="#8AB39A" transform="rotate(25 38 22)"></ellipse></g><g><ellipse cx="26.6" cy="30" rx="4" ry="2" fill="#487B5F" transform="rotate(-25 26 30)"></ellipse><ellipse cx="37.4" cy="30" rx="4" ry="2" fill="#8AB39A" transform="rotate(25 38 30)"></ellipse></g><g><ellipse cx="27.4" cy="38" rx="3.5" ry="2" fill="#487B5F" transform="rotate(-25 26 38)"></ellipse><ellipse cx="36.6" cy="38" rx="3.5" ry="2" fill="#8AB39A" transform="rotate(25 38 38)"></ellipse></g><g><ellipse cx="28.2" cy="46" rx="3" ry="2" fill="#487B5F" transform="rotate(-25 26 46)"></ellipse><ellipse cx="35.8" cy="46" rx="3" ry="2" fill="#8AB39A" transform="rotate(25 38 46)"></ellipse></g></g><g transform="rotate(0 32 58)"><path d="M32 58C32 40 32 20 32 8" stroke="#2A5340" stroke-width="1.2"></path><g><ellipse cx="25" cy="14" rx="5" ry="2" fill="#487B5F" transform="rotate(-25 26 14)"></ellipse><ellipse cx="39" cy="14" rx="5" ry="2" fill="#8AB39A" transform="rotate(25 38 14)"></ellipse></g><g><ellipse cx="25.8" cy="22" rx="4.5" ry="2" fill="#487B5F" transform="rotate(-25 26 22)"></ellipse><ellipse cx="38.2" cy="22" rx="4.5" ry="2" fill="#8AB39A" transform="rotate(25 38 22)"></ellipse></g><g><ellipse cx="26.6" cy="30" rx="4" ry="2" fill="#487B5F" transform="rotate(-25 26 30)"></ellipse><ellipse cx="37.4" cy="30" rx="4" ry="2" fill="#8AB39A" transform="rotate(25 38 30)"></ellipse></g><g><ellipse cx="27.4" cy="38" rx="3.5" ry="2" fill="#487B5F" transform="rotate(-25 26 38)"></ellipse><ellipse cx="36.6" cy="38" rx="3.5" ry="2" fill="#8AB39A" transform="rotate(25 38 38)"></ellipse></g><g><ellipse cx="28.2" cy="46" rx="3" ry="2" fill="#487B5F" transform="rotate(-25 26 46)"></ellipse><ellipse cx="35.8" cy="46" rx="3" ry="2" fill="#8AB39A" transform="rotate(25 38 46)"></ellipse></g></g><g transform="rotate(25 32 58)"><path d="M32 58C32 40 32 20 32 8" stroke="#2A5340" stroke-width="1.2"></path><g><ellipse cx="25" cy="14" rx="5" ry="2" fill="#487B5F" transform="rotate(-25 26 14)"></ellipse><ellipse cx="39" cy="14" rx="5" ry="2" fill="#8AB39A" transform="rotate(25 38 14)"></ellipse></g><g><ellipse cx="25.8" cy="22" rx="4.5" ry="2" fill="#487B5F" transform="rotate(-25 26 22)"></ellipse><ellipse cx="38.2" cy="22" rx="4.5" ry="2" fill="#8AB39A" transform="rotate(25 38 22)"></ellipse></g><g><ellipse cx="26.6" cy="30" rx="4" ry="2" fill="#487B5F" transform="rotate(-25 26 30)"></ellipse><ellipse cx="37.4" cy="30" rx="4" ry="2" fill="#8AB39A" transform="rotate(25 38 30)"></ellipse></g><g><ellipse cx="27.4" cy="38" rx="3.5" ry="2" fill="#487B5F" transform="rotate(-25 26 38)"></ellipse><ellipse cx="36.6" cy="38" rx="3.5" ry="2" fill="#8AB39A" transform="rotate(25 38 38)"></ellipse></g><g><ellipse cx="28.2" cy="46" rx="3" ry="2" fill="#487B5F" transform="rotate(-25 26 46)"></ellipse><ellipse cx="35.8" cy="46" rx="3" ry="2" fill="#8AB39A" transform="rotate(25 38 46)"></ellipse></g></g></svg>
