<!-- Plant Care Companion — illustrazione originale di Edoardo Giangrandi, © 2026, licenza MIT -->
<svg xmlns="http://www.w3.org/2000/svg" viewBox="0 0 64 64" width="100%" height="100%" aria-hidden="true"><path d="M32 60V44" stroke="#8A6A4A" stroke-width="3" stroke-linecap="round"></path><g transform="translate(32,44) scale(-1,1)"><path d="M0 0C0 -18 6 -30 18 -36" stroke="#2A5340" stroke-width="1.6" fill="none" stroke-linecap="round"></path><g><path d="M1.6166304 -11.7936 L-2.2333695999999996 -0.7935999999999996" stroke="#2A5340" stroke-width="1.9" stroke-linecap="round"></path><path d="M1.6166304 -11.7936 L9.8666304 -5.743599999999999" stroke="#2A5340" stroke-width="1.9" stroke-linecap="round"></path></g><g><path d="M5.5847232 -21.2544 L2.1197232 -11.3544" stroke="#2A5340" stroke-width="1.9" stroke-linecap="round"></path><path d="M5.5847232 -21.2544 L13.0097232 -15.8094" stroke="#2A5340" stroke-width="1.9" stroke-linecap="round"></path></g><g><path d="M10.581580800000001 -28.3824 L7.501580800000001 -19.5824" stroke="#2A5340" stroke-width="1.9" stroke-linecap="round"></path><path d="M10.581580800000001 -28.3824 L17.181580800000003 -23.5424" stroke="#2A5340" stroke-width="1.9" stroke-linecap="round"></path></g><g><path d="M15.2845056 -33.1776 L12.589505599999999 -25.4776" stroke="#2A5340" stroke-width="1.9" stroke-linecap="round"></path><path d="M15.2845056 -33.1776 L21.059505599999998 -28.9426" stroke="#2A5340" stroke-width="1.9" stroke-linecap="round"></path></g><g><path d="M18.3708 -35.64 L16.0608 -29.04" stroke="#2A5340" stroke-width="1.9" stroke-linecap="round"></path><path d="M18.3708 -35.64 L23.3208 -32.01" stroke="#2A5340" stroke-width="1.9" stroke-linecap="round"></path></g></g><g transform="translate(32,44) scale(1,1)"><path d="M0 0C0 -18 6 -30 18 -36" stroke="#2A5340" stroke-width="1.6" fill="none" stroke-linecap="round"></path><g><path d="M1.6166304 -11.7936 L-2.2333695999999996 -0.7935999999999996" stroke="#2A5340" stroke-width="1.9" stroke-linecap="round"></path><path d="M1.6166304 -11.7936 L9.8666304 -5.743599999999999" stroke="#2A5340" stroke-width="1.9" stroke-linecap="round"></path></g><g><path d="M5.5847232 -21.2544 L2.1197232 -11.3544" stroke="#2A5340" stroke-width="1.9" stroke-linecap="round"></path><path d="M5.5847232 -21.2544 L13.0097232 -15.8094" stroke="#2A5340" stroke-width="1.9" stroke-linecap="round"></path></g><g><path d="M10.581580800000001 -28.3824 L7.501580800000001 -19.5824" stroke="#2A5340" stroke-width="1.9" stroke-linecap="round"></path><path d="M10.581580800000001 -28.3824 L17.181580800000003 -23.5424" stroke="#2A5340" stroke-width="1.9" stroke-linecap="round"></path></g><g><path d="M15.2845056 -33.1776 L12.589505599999999 -25.4776" stroke="#2A5340" stroke-width="1.9" stroke-linecap="round"></path><path d="M15.2845056 -33.1776 L21.059505599999998 -28.9426" stroke="#2A5340" stroke-width="1.9" stroke-linecap="round"></path></g><g><path d="M18.3708 -35.64 L16.0608 -29.04" stroke="#2A5340" stroke-width="1.9" stroke-linecap="round"></path><path d="M18.3708 -35.64 L23.3208 -32.01" stroke="#2A5340" stroke-width="1.9" stroke-linecap="round"></path></g></g><g transform="translate(32,44) scale(-0.78,0.78)"><path d="M0 0C0 -18 6 -30 18 -36" stroke="#487B5F" stroke-width="1.6" fill="none" stroke-linecap="round"></path><g><path d="M1.6166304 -11.7936 L-2.2333695999999996 -0.7935999999999996" stroke="#487B5F" stroke-width="1.9" stroke-linecap="round"></path><path d="M1.6166304 -11.7936 L9.8666304 -5.743599999999999" stroke="#487B5F" stroke-width="1.9" stroke-linecap="round"></path></g><g><path d="M5.5847232 -21.2544 L2.1197232 -11.3544" stroke="#487B5F" stroke-width="1.9" stroke-linecap="round"></path><path d="M5.5847232 -21.2544 L13.0097232 -15.8094" stroke="#487B5F" stroke-width="1.9" stroke-linecap="round"></path></g><g><path d="M10.581580800000001 -28.3824 L7.501580800000001 -19.5824" stroke="#487B5F" stroke-width="1.9" stroke-linecap="round"></path><path d="M10.581580800000001 -28.3824 L17.181580800000003 -23.5424" stroke="#487B5F" stroke-width="1.9" stroke-linecap="round"></path></g><g><path d="M15.2845056 -33.1776 L12.589505599999999 -25.4776" stroke="#487B5F" stroke-width="1.9" stroke-linecap="round"></path><path d="M15.2845056 -33.1776 L21.059505599999998 -28.9426" stroke="#487B5F" stroke-width="1.9" stroke-linecap="round"></path></g><g><path d="M18.3708 -35.64 L16.0608 -29.04" stroke="#487B5F" stroke-width="1.9" stroke-linecap="round"></path><path d="M18.3708 -35.64 L23.3208 -32.01" stroke="#487B5F" stroke-width="1.9" stroke-linecap="round"></path></g></g></svg>
