<!-- Plant Care Companion — illustrazione originale di Edoardo Giangrandi, © 2026, licenza MIT -->
<svg xmlns="http://www.w3.org/2000/svg" viewBox="0 0 64 64" width="100%" height="100%" aria-hidden="true"><path d="M32 8c0 14-8 22-8 34" stroke="#2E5545" stroke-width="1.4" fill="none"></path><path d="M32 8c0 14 8 22 8 34" stroke="#2E5545" stroke-width="1.4" fill="none"></path><path d="M18 18c7 2 10 8 7 12s-11 4-13-1 0-9 6-11z" fill="#89AF97"></path><path d="M46 18c7 2 10 8 7 12s-11 4-13-1 0-9 6-11z" fill="#4C7A63"></path><path d="M16 36c7 2 10 8 7 12s-11 4-13-1 0-9 6-11z" fill="#89AF97"></path></svg>
