<!-- Plant Care Companion — illustrazione originale di Edoardo Giangrandi, © 2026, licenza MIT -->
<svg xmlns="http://www.w3.org/2000/svg" viewBox="0 0 64 64" width="100%" height="100%" aria-hidden="true"><g transform="rotate(-30 32 60)"><path d="M32 60V38" stroke="#2E5545" stroke-width="1.4"></path><path d="M32 8c7 8 9 20 5 27-3 5-7 5-10 0-4-7-2-19 5-27z" fill="#4C7A63"></path><path d="M32 12v24" stroke="#89AF97" stroke-width=".9"></path></g><g transform="rotate(-12 32 60)"><path d="M32 60V38" stroke="#2E5545" stroke-width="1.4"></path><path d="M32 8c7 8 9 20 5 27-3 5-7 5-10 0-4-7-2-19 5-27z" fill="#2E5545"></path><path d="M32 12v24" stroke="#89AF97" stroke-width=".9"></path></g><g transform="rotate(12 32 60)"><path d="M32 60V38" stroke="#2E5545" stroke-width="1.4"></path><path d="M32 8c7 8 9 20 5 27-3 5-7 5-10 0-4-7-2-19 5-27z" fill="#4C7A63"></path><path d="M32 12v24" stroke="#89AF97" stroke-width=".9"></path></g><g transform="rotate(30 32 60)"><path d="M32 60V38" stroke="#2E5545" stroke-width="1.4"></path><path d="M32 8c7 8 9 20 5 27-3 5-7 5-10 0-4-7-2-19 5-27z" fill="#2E5545"></path><path d="M32 12v24" stroke="#89AF97" stroke-width=".9"></path></g><path d="M40 44V22" stroke="#89AF97" stroke-width="1.4"></path><path d="M40 22c6-6 9-2 6 5-2 5-6 6-6 1z" fill="#FBFDF9" stroke="#2E5545" stroke-width="1"></path><path d="M41 24c2 1 2 5 1 7" stroke="#D9C68A" stroke-width="2" stroke-linecap="round"></path></svg>
